<svg aria-hidden="true" style="position: absolute; width: 0; height: 0; overflow: hidden;" version="1.1" xmlns="http://www.w3.org/2000/svg" xmlns:xlink="http://www.w3.org/1999/xlink">
<defs>
<symbol id="icon-epicurious" viewBox="0 0 119 32">
<path fill="#180030" style="fill: var(--color1, #180030)" d="M14.39 2.987c-2.363 0-4.271 1.885-4.271 4.219 0 2.316 1.908 4.201 4.253 4.219-0.582-0.018-1.036-0.485-1.036-1.059s0.473-1.059 1.072-1.059c2.544 0 8.197 0 10.687 0 1.763 0 3.199-1.418 3.199-3.16s-1.436-3.16-3.199-3.16h-10.705z"></path>
<path fill="#6927da" style="fill: var(--color2, #6927da)" d="M9.197 11.425c-2.363 0-4.271 1.885-4.271 4.219 0 2.316 1.908 4.201 4.253 4.219-0.581-0.018-1.036-0.485-1.036-1.059s0.473-1.059 1.072-1.059c2.544 0 8.197 0 10.687 0 1.763 0 3.199-1.418 3.199-3.16s-1.436-3.16-3.199-3.16h-10.705z"></path>
<path fill="#7839ee" style="fill: var(--color3, #7839ee)" d="M5.608 19.863c-2.531 0-4.576 2.030-4.576 4.544 0 2.494 2.045 4.524 4.557 4.544-0.623-0.019-1.11-0.522-1.11-1.141s0.506-1.141 1.149-1.141c2.726 0 8.782 0 11.45 0 1.889 0 3.427-1.527 3.427-3.403s-1.538-3.403-3.427-3.403h-11.469z"></path>
<path fill="#180030" style="fill: var(--color1, #180030)" d="M34.771 22.4v-13.631h8.763v2.337h-6.192v3.252h5.647v2.337h-5.647v3.369h6.309v2.337h-8.88z"></path>
<path fill="#180030" style="fill: var(--color1, #180030)" d="M44.658 26.295v-13.553h2.415v1.168h0.351c0.221-0.376 0.565-0.707 1.032-0.993 0.467-0.299 1.136-0.448 2.006-0.448 0.779 0 1.499 0.195 2.161 0.584 0.662 0.376 1.194 0.935 1.597 1.675s0.604 1.636 0.604 2.687v0.312c0 1.051-0.201 1.947-0.604 2.687s-0.935 1.305-1.597 1.694c-0.662 0.377-1.383 0.565-2.161 0.565-0.584 0-1.077-0.071-1.48-0.214-0.39-0.13-0.708-0.299-0.954-0.506-0.234-0.221-0.422-0.441-0.565-0.662h-0.351v5.005h-2.454zM49.721 20.531c0.766 0 1.396-0.24 1.889-0.72 0.506-0.493 0.759-1.207 0.759-2.142v-0.195c0-0.935-0.253-1.642-0.759-2.122-0.506-0.493-1.136-0.74-1.889-0.74s-1.383 0.247-1.889 0.74c-0.506 0.48-0.76 1.188-0.76 2.122v0.195c0 0.935 0.253 1.649 0.76 2.142 0.506 0.48 1.136 0.72 1.889 0.72z"></path>
<path fill="#180030" style="fill: var(--color1, #180030)" d="M56.102 22.4v-9.658h2.454v9.658h-2.454zM57.328 11.612c-0.441 0-0.818-0.143-1.129-0.428-0.299-0.286-0.448-0.662-0.448-1.129s0.149-0.844 0.448-1.129c0.312-0.286 0.688-0.428 1.129-0.428 0.454 0 0.831 0.143 1.129 0.428s0.448 0.662 0.448 1.129c0 0.467-0.149 0.844-0.448 1.129s-0.675 0.428-1.129 0.428z"></path>
<path fill="#180030" style="fill: var(--color1, #180030)" d="M64.838 22.673c-0.935 0-1.785-0.195-2.551-0.584-0.753-0.39-1.35-0.954-1.792-1.694s-0.662-1.636-0.662-2.687v-0.273c0-1.052 0.221-1.947 0.662-2.687s1.039-1.305 1.792-1.694c0.766-0.39 1.616-0.584 2.551-0.584 0.922 0 1.714 0.162 2.376 0.487s1.194 0.772 1.597 1.344c0.415 0.558 0.688 1.194 0.818 1.908l-2.376 0.506c-0.052-0.389-0.169-0.74-0.351-1.052s-0.441-0.558-0.779-0.74c-0.325-0.182-0.733-0.273-1.227-0.273s-0.941 0.11-1.344 0.331c-0.389 0.208-0.701 0.526-0.935 0.954-0.221 0.415-0.331 0.928-0.331 1.538v0.195c0 0.61 0.11 1.129 0.331 1.558 0.234 0.415 0.545 0.733 0.935 0.954 0.402 0.208 0.85 0.311 1.344 0.311 0.74 0 1.298-0.188 1.675-0.565 0.389-0.389 0.636-0.896 0.74-1.519l2.376 0.565c-0.169 0.688-0.461 1.318-0.876 1.889-0.402 0.558-0.935 1-1.597 1.324s-1.454 0.487-2.376 0.487z"></path>
<path fill="#180030" style="fill: var(--color1, #180030)" d="M74.417 22.556c-0.753 0-1.415-0.169-1.986-0.506-0.558-0.351-0.993-0.831-1.305-1.441s-0.467-1.311-0.467-2.103v-5.764h2.454v5.569c0 0.727 0.175 1.272 0.526 1.636 0.363 0.363 0.876 0.545 1.538 0.545 0.753 0 1.337-0.247 1.752-0.74 0.416-0.506 0.624-1.207 0.624-2.103v-4.907h2.453v9.658h-2.414v-1.266h-0.351c-0.155 0.325-0.448 0.643-0.876 0.954s-1.078 0.467-1.947 0.467z"></path>
<path fill="#180030" style="fill: var(--color1, #180030)" d="M81.762 22.4v-9.658h2.415v1.090h0.35c0.144-0.389 0.377-0.675 0.702-0.857 0.337-0.182 0.727-0.273 1.168-0.273h1.168v2.181h-1.207c-0.623 0-1.136 0.169-1.538 0.506-0.403 0.325-0.604 0.831-0.604 1.519v5.491h-2.453z"></path>
<path fill="#180030" style="fill: var(--color1, #180030)" d="M88.509 22.4v-9.658h2.454v9.658h-2.454zM89.736 11.612c-0.441 0-0.818-0.143-1.129-0.428-0.299-0.286-0.448-0.662-0.448-1.129s0.149-0.844 0.448-1.129c0.311-0.286 0.688-0.428 1.129-0.428 0.454 0 0.831 0.143 1.129 0.428s0.448 0.662 0.448 1.129c0 0.467-0.149 0.844-0.448 1.129s-0.675 0.428-1.129 0.428z"></path>
<path fill="#180030" style="fill: var(--color1, #180030)" d="M97.303 22.673c-0.961 0-1.824-0.195-2.59-0.584s-1.37-0.954-1.811-1.694c-0.441-0.74-0.662-1.629-0.662-2.668v-0.312c0-1.039 0.221-1.928 0.662-2.668s1.046-1.305 1.811-1.694c0.766-0.39 1.629-0.584 2.59-0.584s1.824 0.195 2.59 0.584c0.766 0.389 1.37 0.954 1.811 1.694s0.663 1.629 0.663 2.668v0.312c0 1.039-0.221 1.928-0.663 2.668s-1.044 1.305-1.811 1.694c-0.766 0.389-1.63 0.584-2.59 0.584zM97.303 20.492c0.753 0 1.376-0.24 1.869-0.72 0.493-0.493 0.74-1.194 0.74-2.103v-0.195c0-0.909-0.247-1.603-0.74-2.084-0.48-0.493-1.103-0.74-1.869-0.74-0.753 0-1.376 0.247-1.869 0.74-0.493 0.48-0.74 1.175-0.74 2.084v0.195c0 0.909 0.247 1.61 0.74 2.103 0.493 0.48 1.116 0.72 1.869 0.72z"></path>
<path fill="#180030" style="fill: var(--color1, #180030)" d="M107.338 22.556c-0.753 0-1.416-0.169-1.987-0.506-0.558-0.351-0.993-0.831-1.304-1.441s-0.468-1.311-0.468-2.103v-5.764h2.453v5.569c0 0.727 0.176 1.272 0.527 1.636 0.363 0.363 0.876 0.545 1.538 0.545 0.753 0 1.338-0.247 1.752-0.74 0.416-0.506 0.624-1.207 0.624-2.103v-4.907h2.454v9.658h-2.415v-1.266h-0.35c-0.156 0.325-0.448 0.643-0.876 0.954s-1.077 0.467-1.947 0.467z"></path>
<path fill="#180030" style="fill: var(--color1, #180030)" d="M118.694 22.673c-1.26 0-2.291-0.273-3.096-0.818s-1.292-1.324-1.46-2.337l2.259-0.584c0.091 0.454 0.24 0.811 0.448 1.071 0.22 0.26 0.487 0.448 0.798 0.565 0.324 0.104 0.675 0.156 1.051 0.156 0.571 0 0.993-0.097 1.265-0.292 0.273-0.208 0.409-0.461 0.409-0.759s-0.13-0.526-0.389-0.682c-0.26-0.169-0.676-0.305-1.246-0.409l-0.546-0.097c-0.674-0.13-1.291-0.305-1.85-0.526-0.558-0.234-1.006-0.552-1.344-0.954s-0.506-0.922-0.506-1.558c0-0.961 0.35-1.694 1.051-2.2 0.702-0.519 1.623-0.779 2.765-0.779 1.078 0 1.973 0.24 2.687 0.72s1.182 1.11 1.402 1.889l-2.278 0.701c-0.104-0.493-0.318-0.844-0.642-1.052-0.311-0.208-0.702-0.312-1.168-0.312s-0.824 0.084-1.071 0.253c-0.247 0.156-0.37 0.376-0.37 0.662 0 0.312 0.13 0.545 0.389 0.701 0.26 0.143 0.61 0.253 1.051 0.331l0.546 0.097c0.727 0.13 1.382 0.305 1.966 0.526 0.598 0.208 1.065 0.513 1.403 0.915 0.35 0.389 0.525 0.922 0.525 1.597 0 1.013-0.37 1.798-1.11 2.356-0.727 0.545-1.707 0.818-2.94 0.818z"></path>
</symbol>
<symbol id="icon-cloudwatch" viewBox="0 0 133 32">
<path fill="#180030" style="fill: var(--color1, #180030)" d="M16.12 17.266c-0.33-3.998-3.679-7.139-7.762-7.139-4.302 0-7.789 3.487-7.789 7.789s3.487 7.789 7.789 7.789h11.683v-8.438h-3.921z"></path>
<path fill="#7839ee" style="fill: var(--color3, #7839ee)" d="M19.392 25.704c5.377 0 9.736-4.359 9.736-9.736s-4.359-9.736-9.736-9.736c-5.377 0-9.736 4.359-9.736 9.736s4.359 9.736 9.736 9.736z"></path>
<path fill="#180030" style="fill: var(--color1, #180030)" d="M34.902 16.098c0-1.296 0.248-2.429 0.745-3.398 0.509-0.981 1.23-1.738 2.163-2.272 0.945-0.533 2.054-0.8 3.326-0.8 0.993 0 1.884 0.194 2.671 0.582s1.424 0.933 1.908 1.636c0.485 0.703 0.775 1.514 0.872 2.435h-2.726c-0.157-0.727-0.491-1.296-0.999-1.708-0.497-0.424-1.121-0.636-1.872-0.636-1.018 0-1.823 0.382-2.417 1.145s-0.89 1.769-0.89 3.017c0 1.236 0.297 2.241 0.89 3.017 0.594 0.763 1.399 1.145 2.417 1.145 0.751 0 1.375-0.206 1.872-0.618 0.509-0.424 0.842-1 0.999-1.726h2.726c-0.097 0.921-0.388 1.733-0.872 2.435s-1.121 1.248-1.908 1.636c-0.788 0.388-1.678 0.582-2.671 0.582-1.272 0-2.381-0.267-3.326-0.8-0.933-0.533-1.654-1.284-2.163-2.253-0.497-0.981-0.745-2.12-0.745-3.417z"></path>
<path fill="#180030" style="fill: var(--color1, #180030)" d="M47.244 9.737h2.562v12.721h-2.562v-12.721z"></path>
<path fill="#180030" style="fill: var(--color1, #180030)" d="M55.426 22.568c-0.981 0-1.848-0.194-2.599-0.582-0.739-0.4-1.315-0.963-1.726-1.69-0.4-0.727-0.6-1.563-0.6-2.508s0.2-1.781 0.6-2.508c0.412-0.727 0.987-1.284 1.726-1.672 0.751-0.4 1.617-0.6 2.599-0.6s1.841 0.2 2.581 0.6c0.751 0.388 1.327 0.945 1.726 1.672 0.412 0.727 0.618 1.563 0.618 2.508 0 0.957-0.206 1.799-0.618 2.526-0.4 0.715-0.975 1.272-1.726 1.672-0.739 0.388-1.599 0.582-2.581 0.582zM55.426 20.478c0.715 0 1.278-0.248 1.69-0.745 0.424-0.497 0.636-1.145 0.636-1.945s-0.212-1.448-0.636-1.945c-0.412-0.497-0.975-0.745-1.69-0.745-0.703 0-1.266 0.248-1.69 0.745-0.412 0.497-0.618 1.145-0.618 1.945s0.206 1.448 0.618 1.945c0.424 0.497 0.987 0.745 1.69 0.745z"></path>
<path fill="#180030" style="fill: var(--color1, #180030)" d="M69.831 13.118v9.341h-2.272l-0.236-1.127c-0.327 0.388-0.709 0.691-1.145 0.909s-0.969 0.327-1.599 0.327c-1.090 0-1.981-0.333-2.671-1-0.691-0.678-1.036-1.805-1.036-3.38v-5.070h2.562v4.761c0 0.848 0.145 1.49 0.436 1.926 0.303 0.424 0.763 0.636 1.381 0.636 0.642 0 1.139-0.236 1.49-0.709 0.351-0.485 0.527-1.157 0.527-2.017v-4.598h2.562z"></path>
<path fill="#180030" style="fill: var(--color1, #180030)" d="M80.226 9.737v12.721h-2.235l-0.254-1.29c-0.715 0.933-1.684 1.399-2.908 1.399-0.824 0-1.563-0.194-2.217-0.582-0.654-0.4-1.169-0.963-1.545-1.69-0.363-0.727-0.545-1.569-0.545-2.526 0-0.945 0.182-1.775 0.545-2.49 0.376-0.727 0.89-1.284 1.545-1.672 0.666-0.4 1.411-0.6 2.235-0.6 1.212 0 2.151 0.424 2.817 1.272v-4.543h2.562zM75.429 20.478c0.691 0 1.242-0.242 1.654-0.727 0.412-0.497 0.618-1.145 0.618-1.944 0-0.812-0.206-1.466-0.618-1.963s-0.963-0.745-1.654-0.745c-0.691 0-1.248 0.248-1.672 0.745-0.412 0.497-0.618 1.145-0.618 1.945s0.206 1.448 0.618 1.945c0.424 0.497 0.981 0.745 1.672 0.745z"></path>
<path fill="#180030" style="fill: var(--color1, #180030)" d="M80.559 9.737l2.818-0.018 2.345 9.305 2.489-9.287h2.454l2.416 9.287 2.399-9.287h2.762l-3.525 12.721h-3.144l-2.199-8.451-2.144 8.451h-3.145l-3.525-12.721z"></path>
<path fill="#180030" style="fill: var(--color1, #180030)" d="M106.793 20.296v2.163h-1.309c-1.175 0-1.751-0.509-1.726-1.527-0.34 0.533-0.757 0.939-1.253 1.218s-1.097 0.418-1.8 0.418c-1.042 0-1.884-0.236-2.526-0.709-0.629-0.485-0.944-1.163-0.944-2.035 0-0.993 0.363-1.757 1.090-2.29 0.739-0.545 1.805-0.818 3.198-0.818h1.854v-0.454c0-0.424-0.158-0.757-0.472-1-0.315-0.254-0.74-0.382-1.272-0.382-0.473 0-0.861 0.103-1.164 0.309s-0.484 0.485-0.546 0.836h-2.471c0.085-0.957 0.509-1.696 1.272-2.217 0.763-0.533 1.775-0.8 3.035-0.8 1.32 0 2.338 0.291 3.052 0.872 0.727 0.582 1.090 1.424 1.090 2.526v3.289c0 0.23 0.049 0.388 0.146 0.473s0.248 0.127 0.454 0.127h0.291zM103.376 18.424h-1.872c-0.533 0-0.951 0.109-1.254 0.327-0.291 0.206-0.436 0.503-0.436 0.89 0 0.327 0.121 0.588 0.364 0.782 0.254 0.194 0.593 0.291 1.018 0.291 0.666 0 1.193-0.188 1.581-0.563 0.387-0.388 0.587-0.903 0.599-1.545v-0.182z"></path>
<path fill="#180030" style="fill: var(--color1, #180030)" d="M107.656 15.28h-1.544v-2.163h1.544v-2.617h2.563v2.617h2.126v2.163h-2.126v4.089c0 0.327 0.066 0.563 0.199 0.709 0.146 0.145 0.382 0.218 0.709 0.218h1.327v2.163h-2.127c-1.78 0-2.672-0.891-2.672-2.671v-4.507z"></path>
<path fill="#180030" style="fill: var(--color1, #180030)" d="M121.643 18.915c-0.17 1.139-0.654 2.035-1.453 2.69-0.788 0.642-1.811 0.963-3.072 0.963-0.969 0-1.817-0.194-2.544-0.582-0.727-0.4-1.29-0.963-1.69-1.69-0.388-0.727-0.581-1.563-0.581-2.508 0-0.957 0.194-1.793 0.581-2.508 0.4-0.727 0.963-1.284 1.69-1.672 0.739-0.4 1.594-0.6 2.563-0.6 1.248 0 2.265 0.321 3.053 0.963 0.787 0.63 1.271 1.508 1.453 2.635h-2.654c-0.109-0.46-0.326-0.824-0.654-1.090-0.327-0.279-0.733-0.418-1.218-0.418-0.666 0-1.199 0.248-1.599 0.745s-0.599 1.145-0.599 1.945 0.199 1.448 0.599 1.945c0.4 0.497 0.933 0.745 1.599 0.745 0.496 0 0.909-0.139 1.236-0.418 0.339-0.279 0.557-0.66 0.654-1.145h2.635z"></path>
<path fill="#180030" style="fill: var(--color1, #180030)" d="M127.628 13.009c1.102 0 2.004 0.339 2.707 1.018 0.715 0.679 1.072 1.799 1.072 3.362v5.070h-2.562v-4.961c0-0.775-0.158-1.363-0.472-1.763-0.315-0.412-0.788-0.618-1.418-0.618-0.654 0-1.169 0.224-1.545 0.672-0.363 0.448-0.546 1.072-0.546 1.872v4.798h-2.562v-12.721h2.562v4.525c0.691-0.836 1.612-1.254 2.763-1.254z"></path>
</symbol>
<symbol id="icon-globalbank" viewBox="0 0 129 32">
<path fill="#180030" style="fill: var(--color1, #180030)" d="M20.405 1.69h-10.941l-8.808 8.808v10.941l8.808 8.808h10.941l8.808-8.808v-10.941l-8.808-8.808zM10.978 21.577l-5.643-5.643 5.643-5.643c2.133-2.133 5.643-2.133 7.776 0l5.643 5.643-5.643 5.643c-2.133 2.133-5.574 2.133-7.776 0z"></path>
<path fill="#180030" style="fill: var(--color1, #180030)" d="M41.765 22.614c1.752 0 3.193-0.896 3.641-2.239v2.083h2.59v-5.257c0-1.188-0.935-2.2-2.2-2.2h-3.7v2.2h2.629c0.331 0 0.545 0.214 0.545 0.545 0 1.266-1.675 2.492-3.368 2.492-2.259 0-4.050-1.772-4.050-4.595s1.791-4.459 4.108-4.459c1.752 0 2.96 0.954 3.174 2.414h2.901c-0.175-2.921-2.629-4.926-6.056-4.926-3.602 0-6.912 2.317-6.912 6.971s3.213 6.971 6.698 6.971z"></path>
<path fill="#180030" style="fill: var(--color1, #180030)" d="M49.108 22.459h2.706v-14.078h-2.706v14.078z"></path>
<path fill="#180030" style="fill: var(--color1, #180030)" d="M57.653 22.614c3.018 0 5.179-2.142 5.179-5.062s-2.161-5.062-5.179-5.062c-3.018 0-5.179 2.142-5.179 5.062s2.161 5.062 5.179 5.062zM57.653 20.278c-1.46 0-2.453-1.11-2.453-2.726 0-1.636 0.993-2.745 2.453-2.745s2.453 1.11 2.453 2.745c0 1.616-0.993 2.726-2.453 2.726z"></path>
<path fill="#180030" style="fill: var(--color1, #180030)" d="M68.888 22.614c2.901 0 4.634-2.006 4.634-5.062s-1.733-5.062-4.595-5.062c-1.227 0-2.181 0.467-2.726 1.188v-5.296h-2.706v14.078h2.706v-1.071c0.545 0.759 1.558 1.227 2.687 1.227zM68.459 20.278c-1.46 0-2.414-1.090-2.414-2.726 0-1.655 0.954-2.745 2.414-2.745 1.421 0 2.395 1.090 2.395 2.745 0 1.636-0.974 2.726-2.395 2.726z"></path>
<path fill="#180030" style="fill: var(--color1, #180030)" d="M78.053 12.489c-2.687 0-4.284 1.577-4.401 3.544h2.414c0.039-0.818 0.643-1.558 1.83-1.558 1.11 0 1.753 0.565 1.753 1.382 0 0.409-0.254 0.72-0.74 0.72h-1.656c-2.142 0-3.583 1.168-3.583 3.096 0 1.675 1.305 2.94 3.213 2.94 1.344 0 2.435-0.604 2.766-1.519v1.363h2.687v-6.309c0-2.22-1.811-3.661-4.284-3.661zM77.566 20.648c-0.759 0-1.304-0.448-1.304-1.090 0-0.759 0.584-1.266 1.402-1.266h1.987v0.136c0 1.246-0.76 2.22-2.084 2.22z"></path>
<path fill="#180030" style="fill: var(--color1, #180030)" d="M83.376 22.459h2.706v-14.078h-2.706v14.078z"></path>
<path fill="#180030" style="fill: var(--color1, #180030)" d="M87.52 22.459h5.569c2.882 0 4.868-1.48 4.868-4.069 0-1.791-1.051-2.882-2.298-3.368 0.798-0.428 1.597-1.402 1.597-2.687 0-2.278-1.85-3.505-4.322-3.505h-5.413v13.63zM90.402 14.028v-2.882h2.26c1.304 0 1.888 0.526 1.888 1.441s-0.584 1.441-1.83 1.441h-2.317zM90.402 19.927v-3.427h2.434c1.616 0 2.337 0.623 2.337 1.733s-0.721 1.694-2.337 1.694h-2.434z"></path>
<path fill="#180030" style="fill: var(--color1, #180030)" d="M102.665 12.489c-2.686 0-4.283 1.577-4.4 3.544h2.414c0.039-0.818 0.643-1.558 1.83-1.558 1.11 0 1.752 0.565 1.752 1.382 0 0.409-0.253 0.72-0.739 0.72h-1.655c-2.142 0-3.583 1.168-3.583 3.096 0 1.675 1.305 2.94 3.213 2.94 1.343 0 2.434-0.604 2.764-1.519v1.363h2.687v-6.309c0-2.22-1.811-3.661-4.284-3.661zM102.178 20.648c-0.759 0-1.304-0.448-1.304-1.090 0-0.759 0.584-1.266 1.402-1.266h1.986v0.136c0 1.246-0.759 2.22-2.083 2.22z"></path>
<path fill="#180030" style="fill: var(--color1, #180030)" d="M107.833 22.459h2.726v-5.374c0-1.266 0.837-2.181 2.025-2.181 1.129 0 1.888 0.857 1.888 2.044v5.51h2.725v-6.114c0-2.259-1.44-3.855-3.66-3.855-1.344 0-2.434 0.565-2.979 1.519v-1.363h-2.726v9.813z"></path>
<path fill="#180030" style="fill: var(--color1, #180030)" d="M124.968 22.459h3.271l-4.226-5.958 3.914-3.855h-3.427l-3.408 3.349v-7.613h-2.725v14.078h2.725v-3.076l1.090-1.071 2.785 4.147z"></path>
</symbol>
<symbol id="icon-spherule" viewBox="0 0 109 32">
<path fill="none" stroke="#180030" style="stroke: var(--color1, #180030)" stroke-linejoin="miter" stroke-linecap="butt" stroke-miterlimit="4" stroke-width="1.9472" d="M14.521 29.436c7.349 0 13.306-5.957 13.306-13.306s-5.957-13.306-13.306-13.306c-7.348 0-13.306 5.957-13.306 13.306s5.957 13.306 13.306 13.306z"></path>
<path fill="none" stroke="#180030" style="stroke: var(--color1, #180030)" stroke-linejoin="miter" stroke-linecap="butt" stroke-miterlimit="4" stroke-width="1.9472" d="M19.799 21.408c-2.687 2.687-5.73 4.441-8.441 5.138-2.735 0.703-4.94 0.298-6.245-1.007s-1.71-3.51-1.007-6.245c0.697-2.711 2.451-5.754 5.138-8.441s5.73-4.441 8.441-5.138c2.735-0.703 4.94-0.298 6.245 1.007s1.71 3.51 1.007 6.245c-0.697 2.711-2.451 5.754-5.138 8.441z"></path>
<path fill="none" stroke="#180030" style="stroke: var(--color1, #180030)" stroke-linejoin="miter" stroke-linecap="butt" stroke-miterlimit="4" stroke-width="1.9472" d="M19.799 10.853c2.687 2.687 4.441 5.73 5.138 8.441 0.703 2.735 0.298 4.94-1.007 6.245s-3.51 1.71-6.245 1.007c-2.711-0.697-5.754-2.451-8.441-5.138s-4.441-5.73-5.138-8.441c-0.703-2.735-0.298-4.94 1.007-6.245s3.51-1.71 6.245-1.007c2.711 0.697 5.754 2.451 8.441 5.138z"></path>
<path fill="#180030" style="fill: var(--color1, #180030)" d="M41.035 22.615c3.057 0 5.121-1.597 5.121-4.147 0-5.394-7.166-3.096-7.166-5.939 0-0.798 0.72-1.344 1.869-1.344 1.305 0 2.122 0.701 2.22 1.772h2.784c-0.078-2.59-2.064-4.284-5.004-4.284-2.765 0-4.712 1.597-4.712 3.855 0 5.355 7.068 3.31 7.068 5.978 0 1.032-0.876 1.577-2.181 1.577-1.441 0-2.356-0.876-2.473-2.259h-2.804c0.117 2.901 2.181 4.79 5.277 4.79z"></path>
<path fill="#180030" style="fill: var(--color1, #180030)" d="M46.818 26.431h2.706v-4.848c0.526 0.662 1.48 1.032 2.59 1.032 2.823 0 4.732-2.006 4.732-5.063s-1.752-5.063-4.498-5.063c-1.266 0-2.239 0.467-2.823 1.227v-1.071h-2.706v13.786zM51.783 20.278c-1.46 0-2.415-1.090-2.415-2.726 0-1.655 0.954-2.745 2.415-2.745 1.421 0 2.395 1.091 2.395 2.745 0 1.636-0.974 2.726-2.395 2.726z"></path>
<path fill="#180030" style="fill: var(--color1, #180030)" d="M57.501 22.459h2.707v-5.374c0-1.266 0.837-2.181 2.025-2.181 1.129 0 1.908 0.857 1.908 2.045v5.51h2.707v-6.114c0-2.259-1.441-3.855-3.641-3.855-1.363 0-2.434 0.565-2.999 1.519v-5.627h-2.707v14.078z"></path>
<path fill="#180030" style="fill: var(--color1, #180030)" d="M74.419 19.129c-0.214 0.837-0.935 1.266-2.025 1.266-1.363 0-2.239-0.857-2.434-2.239h7.049c0.019-0.214 0.039-0.506 0.039-0.876 0-2.239-1.383-4.79-4.849-4.79-3.33 0-4.848 2.551-4.848 5.043 0 2.473 1.713 5.082 5.043 5.082 2.414 0 4.284-1.363 4.673-3.485h-2.648zM72.199 14.475c1.305 0 2.064 0.876 2.142 1.967h-4.342c0.234-1.363 0.974-1.967 2.2-1.967z"></path>
<path fill="#180030" style="fill: var(--color1, #180030)" d="M84.145 14.904v-2.259h-1.396c-1.188 0-1.927 0.409-2.453 1.636v-1.636h-2.726v9.814h2.726v-4.77c0-1.675 0.603-2.784 1.947-2.784h1.903z"></path>
<path fill="#180030" style="fill: var(--color1, #180030)" d="M93.492 12.645h-2.725v5.374c0 1.246-0.837 2.181-2.025 2.181-1.111 0-1.89-0.857-1.89-2.045v-5.51h-2.707v6.114c0 2.239 1.442 3.855 3.642 3.855 1.343 0 2.434-0.584 2.979-1.519v1.363h2.725v-9.814z"></path>
<path fill="#180030" style="fill: var(--color1, #180030)" d="M94.661 22.459h2.707v-14.078h-2.707v14.078z"></path>
<path fill="#180030" style="fill: var(--color1, #180030)" d="M105.094 19.129c-0.214 0.837-0.935 1.266-2.025 1.266-1.363 0-2.239-0.857-2.434-2.239h7.049c0.019-0.214 0.039-0.506 0.039-0.876 0-2.239-1.382-4.79-4.848-4.79-3.33 0-4.848 2.551-4.848 5.043 0 2.473 1.713 5.082 5.043 5.082 2.414 0 4.283-1.363 4.674-3.485h-2.648zM102.875 14.475c1.304 0 2.064 0.876 2.142 1.967h-4.342c0.233-1.363 0.973-1.967 2.2-1.967z"></path>
</symbol>
<symbol id="icon-featherdev" viewBox="0 0 130 32">
<path fill="#180030" style="fill: var(--color1, #180030)" d="M23.902 7.636c-0.28-0.281-0.561-0.561-0.842-0.842-0.842-0.898-1.739-1.796-2.862-2.357-1.29-0.673-2.693-0.505-4.096-0.505-2.132 0-7.462 0-10.605 0l2.132 2.862c3.872 0 9.931 0 12.737 0 1.178 0 2.188 0.224 3.142 0.842 0.168 0.056 0.337 0.056 0.393 0z"></path>
<path fill="#180030" style="fill: var(--color1, #180030)" d="M26.259 12.237c-0.28-0.281-0.561-0.561-0.842-0.842-0.842-0.898-1.739-1.796-2.861-2.357-1.291-0.673-2.693-0.505-4.096-0.505-1.852 0-6.284 0-9.426 0l2.132 2.861c3.815 0 9.034 0 11.615 0 1.178 0 2.188 0.224 3.142 0.842 0.112 0.056 0.224 0.056 0.337 0z"></path>
<path fill="#180030" style="fill: var(--color1, #180030)" d="M28.896 16.726c-0.281-0.28-0.561-0.561-0.842-0.842-0.842-0.898-1.739-1.796-2.861-2.357-1.291-0.673-2.693-0.505-4.096-0.505-1.739 0-5.555 0-8.641 0l2.132 2.862c3.703 0 8.416 0 10.773 0 1.178 0 2.188 0.224 3.142 0.842 0.168 0.056 0.281 0.112 0.393 0z"></path>
<path fill="#180030" style="fill: var(--color1, #180030)" d="M5.274 24.3c0.281 0.281 0.561 0.561 0.842 0.842 0.842 0.898 1.739 1.795 2.862 2.357 1.29 0.673 2.693 0.505 4.096 0.505h10.605l-2.132-2.862c-3.872 0-9.931 0-12.737 0-1.178 0-2.188-0.224-3.142-0.842-0.168-0.056-0.281-0.056-0.393 0z"></path>
<path fill="#180030" style="fill: var(--color1, #180030)" d="M2.917 19.7c0.281 0.28 0.561 0.561 0.842 0.842 0.842 0.898 1.739 1.796 2.862 2.357 1.291 0.673 2.693 0.505 4.096 0.505h9.426l-2.132-2.862c-3.816 0-9.034 0-11.615 0-1.178 0-2.188-0.224-3.142-0.842-0.112-0.056-0.224-0.056-0.337 0z"></path>
<path fill="#180030" style="fill: var(--color1, #180030)" d="M0.336 15.155c0.281 0.281 0.561 0.561 0.842 0.842 0.842 0.898 1.739 1.795 2.862 2.357 1.29 0.673 2.693 0.505 4.096 0.505h8.641l-2.132-2.861c-3.703 0-8.416 0-10.773 0-1.178 0-2.188-0.224-3.142-0.842-0.168-0.056-0.281-0.056-0.393 0z"></path>
<path fill="#180030" style="fill: var(--color1, #180030)" d="M35.343 9.483v12.977h2.853v-5.361h5.434v-2.217h-5.434v-2.999h6.27v-2.399h-9.123z"></path>
<path fill="#180030" style="fill: var(--color1, #180030)" d="M51.623 16.752h-4.198c0.012-0.182 0.048-0.388 0.109-0.618 0.073-0.23 0.188-0.448 0.345-0.654 0.17-0.206 0.388-0.376 0.654-0.509 0.279-0.145 0.624-0.218 1.036-0.218 0.63 0 1.097 0.17 1.4 0.509 0.315 0.339 0.533 0.836 0.654 1.49zM47.425 18.388h6.779c0.048-0.727-0.012-1.424-0.182-2.090s-0.448-1.26-0.836-1.781c-0.376-0.521-0.86-0.933-1.454-1.236-0.594-0.315-1.29-0.473-2.090-0.473-0.715 0-1.369 0.127-1.963 0.382-0.582 0.254-1.084 0.606-1.509 1.054-0.424 0.436-0.751 0.957-0.981 1.563s-0.345 1.26-0.345 1.963c0 0.727 0.109 1.393 0.327 1.999 0.23 0.606 0.551 1.127 0.963 1.563s0.915 0.775 1.508 1.018c0.594 0.23 1.26 0.345 1.999 0.345 1.066 0 1.975-0.242 2.726-0.727s1.309-1.29 1.672-2.417h-2.272c-0.085 0.291-0.315 0.57-0.691 0.836-0.376 0.254-0.824 0.382-1.345 0.382-0.727 0-1.284-0.188-1.672-0.563s-0.6-0.981-0.636-1.817z"></path>
<path fill="#180030" style="fill: var(--color1, #180030)" d="M55.080 15.953c0.036-0.606 0.188-1.109 0.454-1.508s0.606-0.721 1.018-0.963c0.412-0.242 0.872-0.412 1.381-0.509 0.521-0.109 1.042-0.164 1.563-0.164 0.473 0 0.951 0.036 1.436 0.109 0.485 0.061 0.927 0.188 1.327 0.382s0.727 0.466 0.981 0.818c0.254 0.339 0.382 0.794 0.382 1.363v4.889c0 0.424 0.024 0.83 0.073 1.218s0.133 0.678 0.255 0.872h-2.617c-0.049-0.145-0.091-0.291-0.127-0.436-0.024-0.157-0.042-0.315-0.055-0.473-0.412 0.424-0.897 0.721-1.454 0.891s-1.127 0.254-1.708 0.254c-0.448 0-0.866-0.054-1.254-0.163s-0.727-0.279-1.018-0.509c-0.291-0.23-0.521-0.521-0.691-0.872-0.158-0.351-0.236-0.769-0.236-1.254 0-0.533 0.091-0.969 0.273-1.309 0.194-0.351 0.436-0.63 0.727-0.836 0.303-0.206 0.642-0.357 1.018-0.454 0.388-0.109 0.775-0.194 1.163-0.254s0.769-0.109 1.145-0.145 0.709-0.091 1-0.164c0.291-0.073 0.521-0.176 0.691-0.309 0.17-0.145 0.248-0.351 0.236-0.618 0-0.279-0.048-0.497-0.145-0.654-0.085-0.17-0.206-0.297-0.363-0.382-0.145-0.097-0.321-0.158-0.527-0.182-0.194-0.036-0.406-0.055-0.636-0.055-0.509 0-0.909 0.109-1.2 0.327s-0.46 0.582-0.509 1.091h-2.581zM61.041 17.861c-0.109 0.097-0.248 0.176-0.418 0.236-0.157 0.049-0.333 0.091-0.527 0.127-0.182 0.036-0.376 0.067-0.582 0.091s-0.412 0.055-0.618 0.091c-0.194 0.036-0.388 0.085-0.582 0.145-0.182 0.061-0.345 0.145-0.491 0.254-0.133 0.097-0.242 0.224-0.327 0.382s-0.127 0.357-0.127 0.6c0 0.23 0.042 0.424 0.127 0.582s0.2 0.285 0.345 0.382c0.145 0.085 0.315 0.145 0.509 0.182s0.394 0.055 0.6 0.055c0.509 0 0.903-0.085 1.181-0.255s0.485-0.37 0.618-0.6c0.133-0.242 0.212-0.485 0.236-0.727 0.036-0.242 0.054-0.436 0.054-0.582v-0.963z"></path>
<path fill="#180030" style="fill: var(--color1, #180030)" d="M68.351 13.063v-2.817h-2.581v2.817h-1.563v1.727h1.563v5.543c0 0.473 0.079 0.854 0.236 1.145s0.369 0.515 0.636 0.672c0.279 0.158 0.594 0.261 0.945 0.309 0.364 0.061 0.745 0.091 1.145 0.091 0.254 0 0.515-0.006 0.781-0.018s0.509-0.036 0.727-0.073v-1.999c-0.121 0.024-0.248 0.042-0.382 0.054s-0.273 0.018-0.418 0.018c-0.436 0-0.727-0.073-0.872-0.218s-0.218-0.436-0.218-0.872v-4.653h1.89v-1.727h-1.89z"></path>
<path fill="#180030" style="fill: var(--color1, #180030)" d="M70.924 9.483v12.977h2.581v-4.925c0-0.957 0.158-1.642 0.473-2.054 0.315-0.424 0.824-0.636 1.527-0.636 0.618 0 1.048 0.194 1.29 0.582 0.242 0.376 0.363 0.951 0.363 1.727v5.307h2.581v-5.779c0-0.582-0.055-1.109-0.163-1.581-0.098-0.485-0.272-0.891-0.527-1.218-0.255-0.339-0.606-0.6-1.055-0.782-0.436-0.194-1-0.291-1.69-0.291-0.485 0-0.981 0.127-1.49 0.382-0.509 0.242-0.927 0.636-1.254 1.181h-0.055v-4.889h-2.581z"></path>
<path fill="#180030" style="fill: var(--color1, #180030)" d="M87.477 16.752h-4.199c0.013-0.182 0.049-0.388 0.11-0.618 0.072-0.23 0.187-0.448 0.345-0.654 0.169-0.206 0.387-0.376 0.654-0.509 0.279-0.145 0.624-0.218 1.037-0.218 0.629 0 1.096 0.17 1.399 0.509 0.315 0.339 0.533 0.836 0.654 1.49zM83.278 18.388h6.779c0.049-0.727-0.013-1.424-0.182-2.090s-0.448-1.26-0.835-1.781c-0.376-0.521-0.861-0.933-1.455-1.236-0.594-0.315-1.29-0.473-2.090-0.473-0.715 0-1.369 0.127-1.962 0.382-0.581 0.254-1.085 0.606-1.509 1.054-0.423 0.436-0.751 0.957-0.98 1.563-0.231 0.606-0.346 1.26-0.346 1.963 0 0.727 0.109 1.393 0.327 1.999 0.23 0.606 0.552 1.127 0.964 1.563s0.914 0.775 1.508 1.018c0.593 0.23 1.26 0.345 1.999 0.345 1.067 0 1.975-0.242 2.726-0.727s1.309-1.29 1.672-2.417h-2.271c-0.085 0.291-0.315 0.57-0.691 0.836-0.375 0.254-0.823 0.382-1.345 0.382-0.727 0-1.285-0.188-1.672-0.563s-0.6-0.981-0.637-1.817z"></path>
<path fill="#180030" style="fill: var(--color1, #180030)" d="M91.043 13.063v9.396h2.58v-4.235c0-0.424 0.043-0.818 0.128-1.181s0.224-0.679 0.418-0.945c0.206-0.279 0.472-0.497 0.8-0.654 0.326-0.157 0.727-0.236 1.199-0.236 0.158 0 0.322 0.012 0.491 0.036 0.169 0.012 0.315 0.030 0.436 0.055v-2.399c-0.206-0.061-0.394-0.091-0.564-0.091-0.327 0-0.642 0.049-0.945 0.145s-0.587 0.236-0.855 0.418c-0.266 0.17-0.503 0.382-0.708 0.636-0.206 0.242-0.37 0.509-0.491 0.8h-0.037v-1.745h-2.453z"></path>
<path fill="#180030" style="fill: var(--color1, #180030)" d="M100.688 20.060v-8.178h2.035c0.702 0 1.29 0.103 1.763 0.309 0.484 0.194 0.872 0.479 1.163 0.854s0.497 0.83 0.618 1.363c0.133 0.521 0.199 1.109 0.199 1.763 0 0.715-0.091 1.321-0.272 1.817s-0.424 0.903-0.727 1.218c-0.303 0.303-0.649 0.521-1.036 0.654s-0.787 0.2-1.2 0.2h-2.544zM97.834 9.483v12.977h5.598c0.994 0 1.854-0.164 2.581-0.491 0.738-0.339 1.351-0.8 1.835-1.381 0.497-0.582 0.866-1.272 1.109-2.072s0.364-1.672 0.364-2.617c0-1.078-0.151-2.017-0.454-2.817-0.291-0.8-0.703-1.466-1.236-1.999-0.521-0.533-1.145-0.933-1.872-1.2-0.715-0.267-1.491-0.4-2.327-0.4h-5.598z"></path>
<path fill="#180030" style="fill: var(--color1, #180030)" d="M116.812 16.752h-4.197c0.012-0.182 0.048-0.388 0.109-0.618 0.073-0.23 0.188-0.448 0.345-0.654 0.17-0.206 0.389-0.376 0.655-0.509 0.279-0.145 0.624-0.218 1.036-0.218 0.631 0 1.097 0.17 1.399 0.509 0.315 0.339 0.533 0.836 0.654 1.49zM112.614 18.388h6.779c0.048-0.727-0.012-1.424-0.182-2.090s-0.448-1.26-0.836-1.781c-0.375-0.521-0.86-0.933-1.453-1.236-0.594-0.315-1.291-0.473-2.090-0.473-0.716 0-1.37 0.127-1.964 0.382-0.581 0.254-1.084 0.606-1.508 1.054-0.425 0.436-0.752 0.957-0.982 1.563s-0.345 1.26-0.345 1.963c0 0.727 0.109 1.393 0.327 1.999 0.229 0.606 0.551 1.127 0.963 1.563s0.915 0.775 1.509 1.018c0.594 0.23 1.26 0.345 2 0.345 1.065 0 1.974-0.242 2.725-0.727s1.308-1.29 1.673-2.417h-2.273c-0.084 0.291-0.314 0.57-0.69 0.836-0.375 0.254-0.824 0.382-1.345 0.382-0.727 0-1.285-0.188-1.673-0.563s-0.599-0.981-0.635-1.817z"></path>
<path fill="#180030" style="fill: var(--color1, #180030)" d="M125.576 22.459l3.181-9.396h-2.563l-1.981 6.416h-0.037l-1.981-6.416h-2.708l3.217 9.396h2.871z"></path>
</symbol>
<symbol id="icon-lightbox" viewBox="0 0 103 32">
<path fill="#180030" style="fill: var(--color1, #180030)" d="M6.53 2.629c-0.328-0.067-0.666-0.067-0.994 0-0.379 0.078-0.718 0.268-0.987 0.418l-0.073 0.041-9.125 5.069c-0.025 0.014-0.051 0.028-0.078 0.043-0.285 0.157-0.643 0.354-0.919 0.653-0.238 0.258-0.418 0.564-0.528 0.898-0.127 0.386-0.126 0.795-0.125 1.12 0 0.030 0 0.060 0 0.089v10.009c0 0.029-0 0.059-0 0.089-0.001 0.325-0.003 0.735 0.125 1.12 0.11 0.333 0.29 0.639 0.528 0.897 0.275 0.299 0.634 0.496 0.919 0.653 0.027 0.015 0.053 0.029 0.078 0.043l9.198 5.11c0.269 0.151 0.608 0.34 0.987 0.418 0.328 0.067 0.666 0.067 0.994 0 0.379-0.078 0.718-0.268 0.987-0.418l0.073-0.041 9.125-5.069c0.011-0.006 0.022-0.012 0.034-0.019 0.014-0.008 0.029-0.016 0.044-0.024 0.285-0.157 0.643-0.354 0.919-0.653 0.238-0.258 0.418-0.564 0.528-0.897 0.127-0.386 0.126-0.795 0.125-1.12-0-0.030-0-0.060-0-0.089v-10.009c0-0.029 0-0.059 0-0.089 0.001-0.325 0.003-0.735-0.125-1.12-0.11-0.333-0.29-0.639-0.528-0.898-0.275-0.299-0.634-0.496-0.919-0.653l-0.001-0.001c-0.026-0.014-0.052-0.029-0.077-0.042l-9.198-5.11c-0.269-0.151-0.608-0.341-0.987-0.418zM5.674 5.245c0.187-0.104 0.282-0.156 0.353-0.191l0.006-0.003 0.006 0.003c0.071 0.034 0.167 0.087 0.353 0.191l8.199 4.555-8.559 4.755-8.559-4.755 8.2-4.555zM-3.832 11.896l8.632 4.795v9.51l-8.251-4.584c-0.197-0.11-0.298-0.166-0.369-0.211l-0.006-0.004-0-0.007c-0.005-0.084-0.006-0.199-0.006-0.425v-9.074z"></path>
<path fill="#180030" style="fill: var(--color1, #180030)" d="M29.587 20.087h3.925v2.313h-6.922v-12.302h2.997v9.989z"></path>
<path fill="#180030" style="fill: var(--color1, #180030)" d="M36.273 11.605c-0.526 0-0.958-0.152-1.297-0.456-0.327-0.315-0.491-0.701-0.491-1.157 0-0.467 0.164-0.853 0.491-1.157 0.339-0.315 0.771-0.473 1.297-0.473 0.514 0 0.935 0.158 1.262 0.473 0.339 0.304 0.508 0.689 0.508 1.157 0 0.456-0.169 0.841-0.508 1.157-0.327 0.304-0.748 0.456-1.262 0.456zM37.763 12.621v9.778h-2.997v-9.778h2.997z"></path>
<path fill="#180030" style="fill: var(--color1, #180030)" d="M43.474 12.481c0.689 0 1.291 0.14 1.805 0.421 0.526 0.28 0.929 0.648 1.209 1.104v-1.384h2.997v9.761c0 0.9-0.181 1.712-0.543 2.436-0.35 0.736-0.894 1.32-1.63 1.752-0.724 0.432-1.63 0.648-2.716 0.648-1.449 0-2.623-0.345-3.522-1.034-0.9-0.678-1.414-1.6-1.542-2.769h2.961c0.093 0.374 0.315 0.666 0.666 0.876 0.351 0.222 0.783 0.333 1.297 0.333 0.619 0 1.11-0.181 1.472-0.543 0.374-0.35 0.561-0.917 0.561-1.7v-1.384c-0.292 0.456-0.695 0.829-1.209 1.122-0.514 0.28-1.116 0.421-1.805 0.421-0.806 0-1.536-0.205-2.191-0.613-0.654-0.421-1.174-1.011-1.56-1.77-0.374-0.771-0.561-1.659-0.561-2.664s0.187-1.887 0.561-2.646c0.386-0.759 0.905-1.343 1.56-1.752s1.384-0.613 2.191-0.613zM46.488 17.51c0-0.748-0.21-1.338-0.631-1.77-0.409-0.432-0.911-0.648-1.507-0.648s-1.104 0.216-1.525 0.648c-0.409 0.421-0.613 1.005-0.613 1.752s0.204 1.343 0.613 1.787c0.421 0.432 0.929 0.648 1.525 0.648s1.098-0.216 1.507-0.648c0.421-0.432 0.631-1.022 0.631-1.77z"></path>
<path fill="#180030" style="fill: var(--color1, #180030)" d="M57.488 12.516c1.121 0 2.021 0.374 2.699 1.121 0.678 0.736 1.016 1.752 1.016 3.049v5.713h-2.979v-5.31c0-0.654-0.169-1.162-0.508-1.525s-0.794-0.543-1.367-0.543c-0.572 0-1.028 0.181-1.367 0.543s-0.508 0.87-0.508 1.525v5.31h-2.997v-12.968h2.997v4.504c0.304-0.432 0.719-0.777 1.244-1.034s1.116-0.386 1.77-0.386z"></path>
<path fill="#180030" style="fill: var(--color1, #180030)" d="M68.56 19.859v2.541h-1.525c-1.087 0-1.933-0.263-2.541-0.789-0.608-0.537-0.911-1.408-0.911-2.611v-3.89h-1.192v-2.488h1.192v-2.383h2.997v2.383h1.963v2.488h-1.963v3.925c0 0.292 0.070 0.502 0.21 0.631s0.374 0.193 0.701 0.193h1.069z"></path>
<path fill="#180030" style="fill: var(--color1, #180030)" d="M73.051 14.006c0.28-0.456 0.683-0.824 1.209-1.104s1.128-0.421 1.805-0.421c0.806 0 1.536 0.204 2.191 0.613s1.168 0.993 1.542 1.752c0.386 0.759 0.578 1.641 0.578 2.646s-0.193 1.893-0.578 2.664c-0.374 0.759-0.887 1.349-1.542 1.77-0.654 0.409-1.384 0.613-2.191 0.613-0.689 0-1.291-0.134-1.805-0.403-0.514-0.28-0.917-0.648-1.209-1.104v1.367h-2.997v-12.968h2.997v4.574zM77.327 17.493c0-0.748-0.211-1.332-0.631-1.752-0.409-0.432-0.917-0.648-1.524-0.648-0.596 0-1.104 0.216-1.525 0.648-0.409 0.432-0.613 1.022-0.613 1.77s0.204 1.338 0.613 1.77c0.421 0.432 0.929 0.648 1.525 0.648s1.104-0.216 1.524-0.648c0.42-0.444 0.631-1.040 0.631-1.787z"></path>
<path fill="#180030" style="fill: var(--color1, #180030)" d="M86.224 22.54c-0.958 0-1.823-0.205-2.594-0.613-0.759-0.409-1.361-0.993-1.805-1.752-0.432-0.759-0.649-1.647-0.649-2.664 0-1.005 0.222-1.887 0.667-2.646 0.443-0.771 1.051-1.361 1.822-1.77s1.635-0.613 2.594-0.613c0.958 0 1.822 0.204 2.593 0.613s1.379 0.999 1.823 1.77c0.443 0.759 0.665 1.641 0.665 2.646s-0.227 1.893-0.683 2.664c-0.443 0.759-1.058 1.344-1.84 1.752-0.771 0.409-1.635 0.613-2.593 0.613zM86.224 19.946c0.572 0 1.057-0.21 1.454-0.631 0.409-0.421 0.613-1.022 0.613-1.805s-0.198-1.384-0.596-1.805c-0.385-0.421-0.864-0.631-1.436-0.631-0.585 0-1.069 0.21-1.455 0.631-0.386 0.409-0.578 1.011-0.578 1.805 0 0.783 0.187 1.384 0.561 1.805 0.386 0.421 0.864 0.631 1.437 0.631z"></path>
<path fill="#180030" style="fill: var(--color1, #180030)" d="M98.537 22.4l-1.875-2.716-1.577 2.716h-3.242l3.224-4.994-3.312-4.784h3.365l1.876 2.699 1.577-2.699h3.242l-3.277 4.924 3.365 4.854h-3.365z"></path>
</symbol>
<symbol id="icon-mobile" viewBox="0 0 31 32">
<path fill="#8000ff" style="fill: var(--color1, #8000ff)" d="M9.526 2.674h11.844c1.706 0 3.090 1.383 3.090 3.090v19.568c0 1.706-1.383 3.090-3.090 3.090h-11.844c-1.706 0-3.090-1.383-3.090-3.090v-19.568c0-1.706 1.383-3.090 3.090-3.090zM14.161 23.787c-0.426 0-0.772 0.346-0.772 0.772s0.346 0.772 0.772 0.772h2.575c0.427 0 0.772-0.346 0.772-0.772s-0.346-0.772-0.772-0.772h-2.575z"></path>
</symbol>
<symbol id="icon-web" viewBox="0 0 31 32">
<path fill="#8000ff" style="fill: var(--color1, #8000ff)" d="M12.668 7.069c-0.463 1.166-0.839 2.583-1.094 4.173 1.231-0.113 2.532-0.173 3.874-0.173s2.643 0.060 3.874 0.173c-0.254-1.59-0.631-3.007-1.094-4.173-0.445-1.121-0.95-1.962-1.461-2.506-0.509-0.543-0.955-0.725-1.32-0.725s-0.811 0.182-1.32 0.725c-0.511 0.545-1.016 1.386-1.461 2.506zM10.851 6.336c-0.577 1.455-1.020 3.208-1.292 5.146-1.337 0.199-2.556 0.464-3.614 0.784-1.231 0.372-2.298 0.835-3.080 1.394-0.099 0.070-0.196 0.145-0.291 0.224 0.863-5.375 4.958-9.659 10.21-10.758-0.026 0.027-0.052 0.054-0.077 0.081-0.737 0.786-1.356 1.871-1.856 3.129zM18.112 3.126c0.026 0.027 0.052 0.054 0.078 0.081 0.737 0.786 1.356 1.871 1.856 3.129 0.577 1.455 1.020 3.208 1.292 5.146 1.337 0.199 2.556 0.464 3.614 0.784 1.231 0.372 2.298 0.835 3.080 1.394 0.099 0.070 0.196 0.145 0.291 0.224-0.863-5.375-4.958-9.659-10.21-10.758zM28.322 18.116c-0.095 0.079-0.192 0.153-0.291 0.224-0.781 0.559-1.849 1.022-3.080 1.394-1.058 0.32-2.278 0.585-3.614 0.784-0.272 1.938-0.714 3.691-1.292 5.146-0.499 1.258-1.118 2.343-1.856 3.129-0.026 0.027-0.052 0.055-0.078 0.081 5.253-1.099 9.348-5.382 10.21-10.758zM12.785 28.873c-0.026-0.027-0.052-0.054-0.078-0.081-0.737-0.786-1.356-1.871-1.856-3.129-0.577-1.455-1.020-3.208-1.292-5.146-1.337-0.199-2.556-0.464-3.614-0.784-1.231-0.372-2.298-0.835-3.080-1.394-0.099-0.071-0.196-0.145-0.291-0.224 0.862 5.376 4.958 9.659 10.21 10.758zM6.508 17.844c0.83 0.251 1.784 0.469 2.836 0.643-0.060-0.809-0.090-1.64-0.090-2.488s0.031-1.679 0.090-2.488c-1.052 0.175-2.007 0.392-2.836 0.643-1.129 0.342-1.972 0.729-2.51 1.114-0.564 0.403-0.613 0.664-0.613 0.731s0.049 0.328 0.613 0.731c0.538 0.385 1.381 0.772 2.51 1.114zM11.21 16c0 0.948 0.041 1.869 0.118 2.752 1.286 0.133 2.672 0.206 4.12 0.206s2.834-0.073 4.12-0.206c0.077-0.883 0.118-1.804 0.118-2.752s-0.041-1.869-0.118-2.752c-1.286-0.133-2.672-0.206-4.12-0.206s-2.834 0.073-4.12 0.206c-0.077 0.883-0.118 1.804-0.118 2.752zM12.668 24.931c-0.463-1.166-0.839-2.583-1.094-4.173 1.231 0.113 2.532 0.173 3.874 0.173s2.643-0.060 3.874-0.173c-0.254 1.59-0.631 3.007-1.094 4.173-0.445 1.121-0.95 1.962-1.461 2.506-0.509 0.542-0.955 0.725-1.32 0.725s-0.811-0.182-1.32-0.725c-0.511-0.545-1.016-1.386-1.461-2.506zM24.389 17.844c-0.83 0.251-1.784 0.469-2.836 0.643 0.060-0.809 0.090-1.64 0.090-2.488s-0.031-1.679-0.090-2.488c1.052 0.175 2.007 0.392 2.836 0.643 1.129 0.342 1.972 0.729 2.51 1.114 0.564 0.403 0.613 0.664 0.613 0.731s-0.049 0.328-0.613 0.731c-0.538 0.385-1.381 0.772-2.51 1.114z"></path>
</symbol>
<symbol id="icon-consulting" viewBox="0 0 31 32">
<path fill="#8000ff" style="fill: var(--color1, #8000ff)" d="M14.161 4.414h2.575c6.399 0 11.586 5.187 11.586 11.586s-5.187 11.586-11.586 11.586h-9.012c-2.844 0-5.149-2.306-5.149-5.149v-6.437c0-6.399 5.187-11.586 11.586-11.586zM20.037 14.061c0.351-0.401 0.311-1.011-0.091-1.362s-1.011-0.31-1.362 0.091l-3.695 4.222c-0.113 0.13-0.309 0.147-0.443 0.039l-2.257-1.805c-0.416-0.333-1.024-0.265-1.357 0.151s-0.266 1.024 0.151 1.357l2.257 1.805c0.941 0.753 2.309 0.632 3.103-0.276l3.695-4.222z"></path>
</symbol>
<symbol id="icon-arrow-right" viewBox="0 0 32 32">
<path d="M19.414 27.414l10-10c0.781-0.781 0.781-2.047 0-2.828l-10-10c-0.781-0.781-2.047-0.781-2.828 0s-0.781 2.047 0 2.828l6.586 6.586h-19.172c-1.105 0-2 0.895-2 2s0.895 2 2 2h19.172l-6.586 6.586c-0.39 0.39-0.586 0.902-0.586 1.414s0.195 1.024 0.586 1.414c0.781 0.781 2.047 0.781 2.828 0z"></path>
</symbol>
<symbol id="icon-facebook" viewBox="0 0 32 32">
<path d="M19 6h5v-6h-5c-3.86 0-7 3.14-7 7v3h-4v6h4v16h6v-16h5l1-6h-6v-3c0-0.542 0.458-1 1-1z"></path>
</symbol>
<symbol id="icon-instagram" viewBox="0 0 32 32">
<path d="M16 2.881c4.275 0 4.781 0.019 6.462 0.094 1.563 0.069 2.406 0.331 2.969 0.55 0.744 0.288 1.281 0.638 1.837 1.194 0.563 0.563 0.906 1.094 1.2 1.838 0.219 0.563 0.481 1.412 0.55 2.969 0.075 1.688 0.094 2.194 0.094 6.463s-0.019 4.781-0.094 6.463c-0.069 1.563-0.331 2.406-0.55 2.969-0.288 0.744-0.637 1.281-1.194 1.837-0.563 0.563-1.094 0.906-1.837 1.2-0.563 0.219-1.413 0.481-2.969 0.55-1.688 0.075-2.194 0.094-6.463 0.094s-4.781-0.019-6.463-0.094c-1.563-0.069-2.406-0.331-2.969-0.55-0.744-0.288-1.281-0.637-1.838-1.194-0.563-0.563-0.906-1.094-1.2-1.837-0.219-0.563-0.481-1.413-0.55-2.969-0.075-1.688-0.094-2.194-0.094-6.463s0.019-4.781 0.094-6.463c0.069-1.563 0.331-2.406 0.55-2.969 0.288-0.744 0.638-1.281 1.194-1.838 0.563-0.563 1.094-0.906 1.838-1.2 0.563-0.219 1.412-0.481 2.969-0.55 1.681-0.075 2.188-0.094 6.463-0.094zM16 0c-4.344 0-4.887 0.019-6.594 0.094-1.7 0.075-2.869 0.35-3.881 0.744-1.056 0.412-1.95 0.956-2.837 1.85-0.894 0.888-1.438 1.781-1.85 2.831-0.394 1.019-0.669 2.181-0.744 3.881-0.075 1.713-0.094 2.256-0.094 6.6s0.019 4.887 0.094 6.594c0.075 1.7 0.35 2.869 0.744 3.881 0.413 1.056 0.956 1.95 1.85 2.837 0.887 0.887 1.781 1.438 2.831 1.844 1.019 0.394 2.181 0.669 3.881 0.744 1.706 0.075 2.25 0.094 6.594 0.094s4.888-0.019 6.594-0.094c1.7-0.075 2.869-0.35 3.881-0.744 1.050-0.406 1.944-0.956 2.831-1.844s1.438-1.781 1.844-2.831c0.394-1.019 0.669-2.181 0.744-3.881 0.075-1.706 0.094-2.25 0.094-6.594s-0.019-4.887-0.094-6.594c-0.075-1.7-0.35-2.869-0.744-3.881-0.394-1.063-0.938-1.956-1.831-2.844-0.887-0.887-1.781-1.438-2.831-1.844-1.019-0.394-2.181-0.669-3.881-0.744-1.712-0.081-2.256-0.1-6.6-0.1v0z"></path>
<path d="M16 7.781c-4.537 0-8.219 3.681-8.219 8.219s3.681 8.219 8.219 8.219 8.219-3.681 8.219-8.219c0-4.537-3.681-8.219-8.219-8.219zM16 21.331c-2.944 0-5.331-2.387-5.331-5.331s2.387-5.331 5.331-5.331c2.944 0 5.331 2.387 5.331 5.331s-2.387 5.331-5.331 5.331z"></path>
<path d="M26.462 7.456c0 1.060-0.859 1.919-1.919 1.919s-1.919-0.859-1.919-1.919c0-1.060 0.859-1.919 1.919-1.919s1.919 0.859 1.919 1.919z"></path>
</symbol>
<symbol id="icon-linkedin2" viewBox="0 0 32 32">
<path d="M12 12h5.535v2.837h0.079c0.77-1.381 2.655-2.837 5.464-2.837 5.842 0 6.922 3.637 6.922 8.367v9.633h-5.769v-8.54c0-2.037-0.042-4.657-3.001-4.657-3.005 0-3.463 2.218-3.463 4.509v8.688h-5.767v-18z"></path>
<path d="M2 12h6v18h-6v-18z"></path>
<path d="M8 7c0 1.657-1.343 3-3 3s-3-1.343-3-3c0-1.657 1.343-3 3-3s3 1.343 3 3z"></path>
</symbol>
<symbol id="icon-arrow-right" viewBox="0 0 32 32">
<path d="M19.414 27.414l10-10c0.781-0.781 0.781-2.047 0-2.828l-10-10c-0.781-0.781-2.047-0.781-2.828 0s-0.781 2.047 0 2.828l6.586 6.586h-19.172c-1.105 0-2 0.895-2 2s0.895 2 2 2h19.172l-6.586 6.586c-0.39 0.39-0.586 0.902-0.586 1.414s0.195 1.024 0.586 1.414c0.781 0.781 2.047 0.781 2.828 0z"></path>
</symbol>
</defs>
</svg>
